<?xml version="1.0" encoding="UTF-8" standalone="no"?>
<svg xmlns="http://www.w3.org/2000/svg" width="1200" height="1200" viewBox="0 0 1200 1200">
<defs>
<style>
.big{font: bold 110px Arial, sans-serif; fill:#fff; letter-spacing:8px}
.small{font: bold 54px Arial, sans-serif; fill:#0a5660; letter-spacing:4px}
</style>
</defs>
<rect width="1200" height="1200" fill="#ffffff"/>
<circle cx="600" cy="600" r="560" fill="#ffffff" stroke="#0a5660" stroke-width="16"/>
<circle cx="600" cy="600" r="470" fill="#35a9d6" stroke="#0a5660" stroke-width="14"/>
<circle cx="600" cy="600" r="330" fill="#35a9d6" stroke="#0a5660" stroke-width="14"/>
<path d="M180,780 A470,470 0 0 0 1020,780 L900,980 A430,430 0 0 1 300,980 Z" fill="#ffffff" stroke="#0a5660" stroke-width="12"/>
<path d="M320,360 A360,360 0 0 1 880,360" fill="none"/>
<text x="600" y="260" text-anchor="middle" class="big">ANON BOARDS</text>
<text x="600" y="940" text-anchor="middle" class="small">YOUR VOICE, INCOGNITO</text>

<!-- microphone -->
<g transform="translate(600,600) rotate(18)">
<rect x="-90" y="-180" rx="40" ry="40" width="180" height="360" fill="#ffffff" stroke="#0a5660" stroke-width="12"/>
<line x1="-55" y1="-130" x2="55" y2="-130" stroke="#0a5660" stroke-width="10"/>
<line x1="-55" y1="-85" x2="55" y2="-85" stroke="#0a5660" stroke-width="10"/>
<line x1="-55" y1="-40" x2="55" y2="-40" stroke="#0a5660" stroke-width="10"/>
<line x1="-55" y1="5" x2="55" y2="5" stroke="#0a5660" stroke-width="10"/>
<line x1="-55" y1="50" x2="55" y2="50" stroke="#0a5660" stroke-width="10"/>
<line x1="-55" y1="95" x2="55" y2="95" stroke="#0a5660" stroke-width="10"/>
<line x1="-55" y1="140" x2="55" y2="140" stroke="#0a5660" stroke-width="10"/>
<line x1="-45" y1="-140" x2="-45" y2="140" stroke="#0a5660" stroke-width="8"/>
<line x1="0" y1="-140" x2="0" y2="140" stroke="#0a5660" stroke-width="8"/>
<line x1="45" y1="-140" x2="45" y2="140" stroke="#0a5660" stroke-width="8"/>

<line x1="0" y1="180" x2="0" y2="280" stroke="#0a5660" stroke-width="14"/>
<line x1="-70" y1="300" x2="70" y2="300" stroke="#0a5660" stroke-width="14"/>
</g>

<!-- lightning -->
<path d="M360 420 L450 420 L400 520 L500 520 L390 690 L430 560 L340 560 Z" fill="#ffffff" stroke="#0a5660" stroke-width="10"/>
</svg>